<svg xmlns="http://www.w3.org/2000/svg" height="48" width="48">

<g transform="translate(0.000000,48.000000) scale(0.100000,-0.100000)"
fill="#000000" stroke="none">
<path d="M64 405 c-4 -8 -3 -32 1 -52 25 -136 181 -283 304 -287 l46 -1 3 48
c3 43 1 48 -23 57 -42 16 -67 12 -97 -17 l-27 -26 -38 26 c-21 15 -53 45 -70
68 l-32 42 28 33 c25 28 28 37 21 67 -4 19 -10 40 -14 46 -11 17 -95 14 -102
-4z m84 -48 c3 -27 -12 -57 -28 -57 -9 0 -30 55 -30 77 0 10 9 13 28 11 21 -2
28 -9 30 -31z m240 -239 c4 -31 -7 -34 -57 -17 -31 11 -31 12 -15 31 27 29 68
20 72 -14z"/>
<path d="M240 317 c0 -7 10 -17 23 -22 12 -6 26 -20 32 -32 5 -13 15 -23 22
-23 22 0 14 40 -13 65 -29 27 -64 33 -64 12z"/>
</g>

</svg>
